<svg width="16" height="16" viewBox="0 0 16 16" fill="none" xmlns="http://www.w3.org/2000/svg">
    <g clip-path="url(#clip0_19_69)">
        <path d="M15.9843 4.70404C15.9468 3.85388 15.8094 3.26945 15.6124 2.76298C15.4092 2.2254 15.0967 1.74412 14.6872 1.34401C14.2871 0.937683 13.8026 0.621934 13.2713 0.421957C12.7619 0.225044 12.1805 0.0875171 11.3303 0.0500723C10.4738 0.00937683 10.2019 0 8.02964 0C5.85734 0 5.58544 0.00937683 4.73212 0.0468842C3.88199 0.0843915 3.29753 0.221981 2.79121 0.418769C2.25348 0.621934 1.7722 0.934495 1.37209 1.34401C0.965759 1.74409 0.650166 2.22856 0.450034 2.75991C0.25312 3.26945 0.115625 3.85075 0.0781485 4.70086C0.0374843 5.55737 0.0280762 5.82926 0.0280762 8.00156C0.0280762 10.1739 0.0374843 10.4458 0.0749603 11.2991C0.112468 12.1492 0.250057 12.7337 0.447002 13.2401C0.650166 13.7777 0.965759 14.259 1.37209 14.6591C1.7722 15.0654 2.25667 15.3812 2.78802 15.5812C3.2975 15.7781 3.8788 15.9156 4.72909 15.9531C5.58225 15.9907 5.85431 15.9999 8.02661 15.9999C10.1989 15.9999 10.4708 15.9907 11.3241 15.9531C12.1743 15.9156 12.7587 15.7781 13.265 15.5812C13.7968 15.3756 14.2798 15.0611 14.6829 14.658C15.0861 14.2548 15.4006 13.7719 15.6062 13.2401C15.803 12.7306 15.9406 12.1492 15.9781 11.2991C16.0156 10.4458 16.025 10.1739 16.025 8.00156C16.025 5.82926 16.0218 5.55733 15.9843 4.70404ZM14.5435 11.2366C14.5091 12.018 14.3778 12.4399 14.2684 12.7212C13.9996 13.4182 13.4464 13.9715 12.7493 14.2403C12.468 14.3497 12.043 14.481 11.2646 14.5153C10.4207 14.5529 10.1677 14.5622 8.03283 14.5622C5.898 14.5622 5.64174 14.5529 4.80085 14.5153C4.01945 14.481 3.59749 14.3497 3.31619 14.2403C2.96934 14.1121 2.65362 13.909 2.39732 13.6433C2.13164 13.3839 1.92848 13.0713 1.80027 12.7244C1.69087 12.4431 1.55963 12.018 1.52534 11.2398C1.4877 10.3958 1.47845 10.1426 1.47845 8.00778C1.47845 5.87296 1.4877 5.61669 1.52534 4.77596C1.55963 3.99456 1.69087 3.5726 1.80027 3.2913C1.92848 2.94429 2.13164 2.62864 2.40051 2.37228C2.65981 2.1066 2.97237 1.90343 3.31938 1.77538C3.60068 1.66598 4.02583 1.53471 4.80404 1.50029C5.64795 1.46279 5.90119 1.45341 8.03586 1.45341C10.1739 1.45341 10.427 1.46279 11.2678 1.50029C12.0492 1.53474 12.4712 1.66595 12.7525 1.77535C13.0993 1.90343 13.4151 2.1066 13.6714 2.37228C13.937 2.63173 14.1402 2.94429 14.2684 3.2913C14.3778 3.5726 14.5091 3.99759 14.5435 4.77596C14.581 5.61988 14.5904 5.87296 14.5904 8.00778C14.5904 10.1426 14.581 10.3927 14.5435 11.2366Z"
              fill="#A3A3A3"/>
        <path d="M8.02967 3.89138C5.76054 3.89138 3.91949 5.7323 3.91949 8.00156C3.91949 10.2708 5.76054 12.1117 8.02967 12.1117C10.2989 12.1117 12.1399 10.2708 12.1399 8.00156C12.1399 5.7323 10.2989 3.89138 8.02967 3.89138ZM8.02967 10.6677C6.55757 10.6677 5.36346 9.47378 5.36346 8.00156C5.36346 6.52933 6.55757 5.33541 8.02964 5.33541C9.50187 5.33541 10.6958 6.52933 10.6958 8.00156C10.6958 9.47378 9.50184 10.6677 8.02967 10.6677ZM13.262 3.72885C13.262 4.25876 12.8323 4.68841 12.3023 4.68841C11.7724 4.68841 11.3428 4.25876 11.3428 3.72885C11.3428 3.19887 11.7724 2.76935 12.3024 2.76935C12.8323 2.76935 13.262 3.19884 13.262 3.72885Z"
              fill="#A3A3A3"/>
    </g>
    <defs>
        <clipPath id="clip0_19_69">
            <rect width="16" height="16" fill="white"/>
        </clipPath>
    </defs>
</svg>