<svg width="16" height="16" viewBox="0 0 16 16" fill="none" xmlns="http://www.w3.org/2000/svg">
    <path d="M15.6867 1.31092C15.5601 1.19505 15.4049 1.11497 15.2371 1.07892C15.0693 1.04286 14.8949 1.05213 14.7319 1.10576L0.663476 5.74329C0.28007 5.86967 0.0200696 6.21192 0.00110086 6.61514C-0.0178366 7.01839 0.208882 7.38354 0.578695 7.54539L4.05791 9.06764L5.10763 13.9362C5.15123 14.1385 5.25388 14.3186 5.47135 14.374C5.69132 14.4301 5.84673 14.3099 6.01085 14.187L8.59273 12.2537L11.6111 14.7237C11.7869 14.8676 12.0018 14.9427 12.2209 14.9427C12.3271 14.9426 12.4325 14.9251 12.533 14.8909C12.8507 14.7832 13.0862 14.5239 13.1629 14.1974L15.9744 2.24417C16.0136 2.07708 16.0076 1.90256 15.957 1.73855C15.9065 1.57454 15.8132 1.42694 15.6867 1.31092ZM6.23576 9.93992C6.23404 9.94398 6.23235 9.94857 6.23076 9.95407L5.64876 11.9874L4.99926 8.97511L9.46541 6.4937L6.34288 9.75864C6.29392 9.81018 6.25729 9.87216 6.23576 9.93992ZM6.42048 12.7063L6.68482 11.7827L6.93766 10.8993L7.84363 11.6407L6.42048 12.7063ZM15.0596 2.02898L12.2482 13.9822C12.2468 13.9881 12.2449 13.9963 12.2312 14.0009C12.2176 14.0056 12.2109 14.0003 12.2063 13.9964L8.90341 11.2937L8.90316 11.2934L7.37288 10.0412L12.2892 4.90064C12.3669 4.81939 12.4129 4.71297 12.4188 4.60071C12.4248 4.48845 12.3903 4.37778 12.3216 4.28879C12.2529 4.19979 12.1545 4.13838 12.0444 4.1157C11.9343 4.09303 11.8197 4.11059 11.7214 4.1652L4.44173 8.20986L0.955382 6.68445C0.944757 6.67982 0.938913 6.67723 0.939757 6.65926C0.940601 6.64136 0.946663 6.63932 0.957663 6.6357L15.026 1.9982C15.0329 1.99598 15.0405 1.99342 15.0519 2.00373C15.0632 2.01411 15.0613 2.02198 15.0596 2.02898Z"
          fill="#A3A3A3"/>
</svg>
