<svg width="16" height="16" viewBox="0 0 16 16" fill="none" xmlns="http://www.w3.org/2000/svg">
    <g clip-path="url(#clip0_19_64)">
        <path d="M11.6713 9.53798L11.6653 9.58798C10.1993 8.85731 10.046 8.75998 9.85664 9.04398C9.7253 9.24065 9.34264 9.68665 9.2273 9.81865C9.11064 9.94865 8.99464 9.95865 8.79664 9.86865C8.59664 9.76865 7.95464 9.55865 7.19464 8.87865C6.60264 8.34865 6.2053 7.69865 6.08797 7.49865C5.89264 7.16131 6.3013 7.11331 6.6733 6.40931C6.73997 6.26931 6.70597 6.15931 6.65664 6.05998C6.60664 5.95998 6.20864 4.97998 6.04197 4.58931C5.88197 4.19998 5.7173 4.24931 5.59397 4.24931C5.20997 4.21598 4.9293 4.22131 4.68197 4.47865C3.60597 5.66131 3.8773 6.88131 4.79797 8.17865C6.6073 10.5466 7.5713 10.9826 9.33397 11.588C9.80997 11.7393 10.244 11.718 10.5873 11.6686C10.97 11.608 11.7653 11.188 11.9313 10.718C12.1013 10.248 12.1013 9.85798 12.0513 9.76798C12.002 9.67798 11.8713 9.62798 11.6713 9.53798Z" fill="#A3A3A3"/>
        <path d="M13.68 2.29926C8.554 -2.65608 0.0706667 0.937922 0.0673333 7.92859C0.0673333 9.32592 0.433333 10.6886 1.13067 11.8919L0 15.9999L4.22333 14.8986C9.49333 17.7453 15.9973 13.9653 16 7.93259C16 5.81526 15.1733 3.82259 13.67 2.32526L13.68 2.29926ZM14.668 7.91059C14.664 12.9993 9.078 16.1773 4.66 13.5799L4.42 13.4373L1.92 14.0873L2.59 11.6573L2.43067 11.4073C-0.318667 7.03059 2.84 1.31059 8.048 1.31059C8.91771 1.3084 9.77922 1.47874 10.5827 1.81174C11.3861 2.14474 12.1155 2.63379 12.7287 3.25059C13.3452 3.85964 13.8342 4.58539 14.1671 5.38549C14.5001 6.18558 14.6704 7.04398 14.668 7.91059Z" fill="#A3A3A3"/>
    </g>
    <defs>
        <clipPath id="clip0_19_64">
            <rect width="16" height="16" fill="white"/>
        </clipPath>
    </defs>
</svg>
